<?xml version="1.0" encoding="iso-8859-1"?>
<svg version="1.1" xmlns="http://www.w3.org/2000/svg" xmlns:xlink="http://www.w3.org/1999/xlink" x="0px" y="0px" viewBox="0 0 27 41" width="10px" height="16px">
  <rect fill="#FAFAFA" x="5.61742" y="8.22773" width="15.01637" height="11.1215" />
  <path fill="#ff267f" stroke-width="1px" stroke-linecap="round" stroke="white" d="m13.53295,40.16539c0,0.00727 0.01455,0.02182 0.01455,0.02182s12.74574,-19.56965 12.74574,-26.00072c0,-9.46473 -6.46017,-13.58236 -12.76029,-13.59691c-6.30012,0.01455 -12.76029,4.13218 -12.76029,13.59691c0,6.43107 12.75301,26.00072 12.75301,26.00072s0.00727,-0.02182 0.00727,-0.02182l0.00001,0zm-4.4159,-26.51724c0,-2.44439 1.97879,-4.42318 4.42318,-4.42318c2.44439,0 4.42318,1.97879 4.42318,4.42318s-1.98606,4.42318 -4.43045,4.42318c-2.43711,0 -4.4159,-1.97879 -4.4159,-4.42318l-0.00001,0z"/>
</svg>
